<?xml version="1.0"?>
<!-- Generated by SVGo -->
<svg width="315.275mm" height="115.250mm"
     viewBox="0.000 0.000 315.275 115.250"
     xmlns="http://www.w3.org/2000/svg" 
     xmlns:xlink="http://www.w3.org/1999/xlink">
<polygon points="310.275,5.000 310.275,110.250 5.000,110.250 5.000,5.000" style="fill:none;stroke-width:0.2;stroke:black"/>
<polygon points="11.725,25.925 11.725,13.125 27.325,13.125 27.325,25.925" style="fill:none;stroke-width:0.2;stroke:black"/>
<polygon points="11.725,44.975 11.725,32.175 27.325,32.175 27.325,44.975" style="fill:none;stroke-width:0.2;stroke:black"/>
<polygon points="11.725,102.125 11.725,89.325 27.325,89.325 27.325,102.125" style="fill:none;stroke-width:0.2;stroke:black"/>
<polygon points="14.106,64.025 14.106,51.225 29.706,51.225 29.706,64.025" style="fill:none;stroke-width:0.2;stroke:black"/>
<polygon points="18.869,83.075 18.869,70.275 34.469,70.275 34.469,83.075" style="fill:none;stroke-width:0.2;stroke:black"/>
<polygon points="30.775,25.925 30.775,13.125 46.375,13.125 46.375,25.925" style="fill:none;stroke-width:0.2;stroke:black"/>
<polygon points="30.775,44.975 30.775,32.175 46.375,32.175 46.375,44.975" style="fill:none;stroke-width:0.2;stroke:black"/>
<polygon points="30.775,102.125 30.775,89.325 46.375,89.325 46.375,102.125" style="fill:none;stroke-width:0.2;stroke:black"/>
<polygon points="35.538,64.025 35.538,51.225 51.137,51.225 51.137,64.025" style="fill:none;stroke-width:0.2;stroke:black"/>
<polygon points="45.062,83.075 45.062,70.275 60.662,70.275 60.662,83.075" style="fill:none;stroke-width:0.2;stroke:black"/>
<polygon points="49.825,25.925 49.825,13.125 65.425,13.125 65.425,25.925" style="fill:none;stroke-width:0.2;stroke:black"/>
<polygon points="49.825,44.975 49.825,32.175 65.425,32.175 65.425,44.975" style="fill:none;stroke-width:0.2;stroke:black"/>
<polygon points="49.825,102.125 49.825,89.325 65.425,89.325 65.425,102.125" style="fill:none;stroke-width:0.2;stroke:black"/>
<polygon points="54.588,64.025 54.588,51.225 70.188,51.225 70.188,64.025" style="fill:none;stroke-width:0.2;stroke:black"/>
<polygon points="64.112,83.075 64.112,70.275 79.712,70.275 79.712,83.075" style="fill:none;stroke-width:0.2;stroke:black"/>
<polygon points="68.875,25.925 68.875,13.125 84.475,13.125 84.475,25.925" style="fill:none;stroke-width:0.2;stroke:black"/>
<polygon points="68.875,44.975 68.875,32.175 84.475,32.175 84.475,44.975" style="fill:none;stroke-width:0.2;stroke:black"/>
<polygon points="73.638,64.025 73.638,51.225 89.237,51.225 89.237,64.025" style="fill:none;stroke-width:0.2;stroke:black"/>
<polygon points="83.162,83.075 83.162,70.275 98.762,70.275 98.762,83.075" style="fill:none;stroke-width:0.2;stroke:black"/>
<polygon points="87.925,25.925 87.925,13.125 103.525,13.125 103.525,25.925" style="fill:none;stroke-width:0.2;stroke:black"/>
<polygon points="87.925,44.975 87.925,32.175 103.525,32.175 103.525,44.975" style="fill:none;stroke-width:0.2;stroke:black"/>
<polygon points="103.806,96.225 103.806,102.495 102.181,102.495 102.181,103.475 98.881,103.475 98.881,102.495 97.156,102.495 97.156,101.695 96.381,101.695 96.381,102.125 80.781,102.125 80.781,101.695 80.006,101.695 80.006,102.495 78.281,102.495 78.281,103.475 74.981,103.475 74.981,102.495 73.356,102.495 73.356,96.225 72.481,96.225 72.481,93.425 73.356,93.425 73.356,90.195 74.981,90.195 74.981,89.275 78.281,89.275 78.281,90.195 80.006,90.195 80.006,90.995 80.781,90.995 80.781,89.325 96.381,89.325 96.381,90.995 97.156,90.995 97.156,90.195 98.881,90.195 98.881,89.275 102.181,89.275 102.181,90.195 103.806,90.195 103.806,93.425 104.681,93.425 104.681,96.225" style="fill:none;stroke-width:0.2;stroke:black"/>
<polygon points="92.688,64.025 92.688,51.225 108.287,51.225 108.287,64.025" style="fill:none;stroke-width:0.2;stroke:black"/>
<polygon points="102.212,83.075 102.212,70.275 117.812,70.275 117.812,83.075" style="fill:none;stroke-width:0.2;stroke:black"/>
<polygon points="106.975,25.925 106.975,13.125 122.575,13.125 122.575,25.925" style="fill:none;stroke-width:0.2;stroke:black"/>
<polygon points="106.975,44.975 106.975,32.175 122.575,32.175 122.575,44.975" style="fill:none;stroke-width:0.2;stroke:black"/>
<polygon points="111.737,64.025 111.737,51.225 127.337,51.225 127.337,64.025" style="fill:none;stroke-width:0.2;stroke:black"/>
<polygon points="118.881,102.125 118.881,89.325 134.481,89.325 134.481,102.125" style="fill:none;stroke-width:0.2;stroke:black"/>
<polygon points="121.263,83.075 121.263,70.275 136.863,70.275 136.863,83.075" style="fill:none;stroke-width:0.2;stroke:black"/>
<polygon points="126.025,25.925 126.025,13.125 141.625,13.125 141.625,25.925" style="fill:none;stroke-width:0.2;stroke:black"/>
<polygon points="126.025,44.975 126.025,32.175 141.625,32.175 141.625,44.975" style="fill:none;stroke-width:0.2;stroke:black"/>
<polygon points="130.787,64.025 130.787,51.225 146.388,51.225 146.388,64.025" style="fill:none;stroke-width:0.2;stroke:black"/>
<polygon points="140.312,83.075 140.312,70.275 155.913,70.275 155.913,83.075" style="fill:none;stroke-width:0.2;stroke:black"/>
<polygon points="145.075,25.925 145.075,13.125 160.675,13.125 160.675,25.925" style="fill:none;stroke-width:0.2;stroke:black"/>
<polygon points="145.075,44.975 145.075,32.175 160.675,32.175 160.675,44.975" style="fill:none;stroke-width:0.2;stroke:black"/>
<polygon points="149.838,64.025 149.838,51.225 165.438,51.225 165.438,64.025" style="fill:none;stroke-width:0.2;stroke:black"/>
<polygon points="159.363,83.075 159.363,70.275 174.963,70.275 174.963,83.075" style="fill:none;stroke-width:0.2;stroke:black"/>
<polygon points="164.125,25.925 164.125,13.125 179.725,13.125 179.725,25.925" style="fill:none;stroke-width:0.2;stroke:black"/>
<polygon points="164.125,44.975 164.125,32.175 179.725,32.175 179.725,44.975" style="fill:none;stroke-width:0.2;stroke:black"/>
<polygon points="180.006,96.225 180.006,102.495 178.381,102.495 178.381,103.475 175.081,103.475 175.081,102.495 173.356,102.495 173.356,101.695 172.581,101.695 172.581,102.125 156.981,102.125 156.981,101.695 156.206,101.695 156.206,102.495 154.481,102.495 154.481,103.475 151.181,103.475 151.181,102.495 149.556,102.495 149.556,96.225 148.681,96.225 148.681,93.425 149.556,93.425 149.556,90.195 151.181,90.195 151.181,89.275 154.481,89.275 154.481,90.195 156.206,90.195 156.206,90.995 156.981,90.995 156.981,89.325 172.581,89.325 172.581,90.995 173.356,90.995 173.356,90.195 175.081,90.195 175.081,89.275 178.381,89.275 178.381,90.195 180.006,90.195 180.006,93.425 180.881,93.425 180.881,96.225" style="fill:none;stroke-width:0.2;stroke:black"/>
<polygon points="168.888,64.025 168.888,51.225 184.488,51.225 184.488,64.025" style="fill:none;stroke-width:0.2;stroke:black"/>
<polygon points="178.413,83.075 178.413,70.275 194.013,70.275 194.013,83.075" style="fill:none;stroke-width:0.2;stroke:black"/>
<polygon points="183.175,25.925 183.175,13.125 198.775,13.125 198.775,25.925" style="fill:none;stroke-width:0.2;stroke:black"/>
<polygon points="183.175,44.975 183.175,32.175 198.775,32.175 198.775,44.975" style="fill:none;stroke-width:0.2;stroke:black"/>
<polygon points="187.938,102.125 187.938,89.325 203.538,89.325 203.538,102.125" style="fill:none;stroke-width:0.2;stroke:black"/>
<polygon points="187.938,64.025 187.938,51.225 203.538,51.225 203.538,64.025" style="fill:none;stroke-width:0.2;stroke:black"/>
<polygon points="197.463,83.075 197.463,70.275 213.063,70.275 213.063,83.075" style="fill:none;stroke-width:0.2;stroke:black"/>
<polygon points="202.225,25.925 202.225,13.125 217.825,13.125 217.825,25.925" style="fill:none;stroke-width:0.2;stroke:black"/>
<polygon points="202.225,44.975 202.225,32.175 217.825,32.175 217.825,44.975" style="fill:none;stroke-width:0.2;stroke:black"/>
<polygon points="206.988,102.125 206.988,89.325 222.588,89.325 222.588,102.125" style="fill:none;stroke-width:0.2;stroke:black"/>
<polygon points="206.988,64.025 206.988,51.225 222.588,51.225 222.588,64.025" style="fill:none;stroke-width:0.2;stroke:black"/>
<polygon points="216.513,83.075 216.513,70.275 232.113,70.275 232.113,83.075" style="fill:none;stroke-width:0.2;stroke:black"/>
<polygon points="221.275,25.925 221.275,13.125 236.875,13.125 236.875,25.925" style="fill:none;stroke-width:0.2;stroke:black"/>
<polygon points="221.275,44.975 221.275,32.175 236.875,32.175 236.875,44.975" style="fill:none;stroke-width:0.2;stroke:black"/>
<polygon points="226.038,64.025 226.038,51.225 241.638,51.225 241.638,64.025" style="fill:none;stroke-width:0.2;stroke:black"/>
<polygon points="228.419,102.125 228.419,89.325 244.019,89.325 244.019,102.125" style="fill:none;stroke-width:0.2;stroke:black"/>
<polygon points="240.325,25.925 240.325,13.125 255.925,13.125 255.925,25.925" style="fill:none;stroke-width:0.2;stroke:black"/>
<polygon points="240.325,44.975 240.325,32.175 255.925,32.175 255.925,44.975" style="fill:none;stroke-width:0.2;stroke:black"/>
<polygon points="242.706,83.075 242.706,70.275 258.306,70.275 258.306,83.075" style="fill:none;stroke-width:0.2;stroke:black"/>
<polygon points="249.850,102.125 249.850,89.325 265.450,89.325 265.450,102.125" style="fill:none;stroke-width:0.2;stroke:black"/>
<polygon points="264.138,25.925 264.138,13.125 279.738,13.125 279.738,25.925" style="fill:none;stroke-width:0.2;stroke:black"/>
<polygon points="264.138,44.975 264.138,32.175 279.738,32.175 279.738,44.975" style="fill:none;stroke-width:0.2;stroke:black"/>
<polygon points="280.019,58.125 280.019,64.395 278.394,64.395 278.394,65.375 275.094,65.375 275.094,64.395 273.369,64.395 273.369,63.595 272.594,63.595 272.594,64.025 256.994,64.025 256.994,63.595 256.219,63.595 256.219,64.395 254.494,64.395 254.494,65.375 251.194,65.375 251.194,64.395 249.569,64.395 249.569,58.125 248.694,58.125 248.694,55.325 249.569,55.325 249.569,52.095 251.194,52.095 251.194,51.175 254.494,51.175 254.494,52.095 256.219,52.095 256.219,52.895 256.994,52.895 256.994,51.225 272.594,51.225 272.594,52.895 273.369,52.895 273.369,52.095 275.094,52.095 275.094,51.175 278.394,51.175 278.394,52.095 280.019,52.095 280.019,55.325 280.894,55.325 280.894,58.125" style="fill:none;stroke-width:0.2;stroke:black"/>
<polygon points="268.900,83.075 268.900,70.275 284.500,70.275 284.500,83.075" style="fill:none;stroke-width:0.2;stroke:black"/>
<polygon points="268.900,102.125 268.900,89.325 284.500,89.325 284.500,102.125" style="fill:none;stroke-width:0.2;stroke:black"/>
<polygon points="287.950,25.925 287.950,13.125 303.550,13.125 303.550,25.925" style="fill:none;stroke-width:0.2;stroke:black"/>
<polygon points="287.950,44.975 287.950,32.175 303.550,32.175 303.550,44.975" style="fill:none;stroke-width:0.2;stroke:black"/>
<polygon points="287.950,64.025 287.950,51.225 303.550,51.225 303.550,64.025" style="fill:none;stroke-width:0.2;stroke:black"/>
<polygon points="287.950,83.075 287.950,70.275 303.550,70.275 303.550,83.075" style="fill:none;stroke-width:0.2;stroke:black"/>
<polygon points="287.950,102.125 287.950,89.325 303.550,89.325 303.550,102.125" style="fill:none;stroke-width:0.2;stroke:black"/>
</svg>
