  0
SECTION
  2
HEADER
  9
$ACADVER
  1
AC1009
  9
$EXTMIN
 10
0.0
 20
0.0
 30
0.0
  9
$EXTMAX
 10
1000.0
 20
1000.0
 30
0.0
  9
$FILLMODE
 70
 0
  9
$SPLFRAME
 70
 1
  0
ENDSEC
  0
SECTION
  2
TABLES
  0
TABLE
  2
LAYER
 70
1
  0
LAYER
  2
0
 70
     0
 62
     7
  6
CONTINUOUS
  0
ENDTAB
  0
ENDSEC
  0
SECTION
  2
ENTITIES
  0
LINE
  8
0
 62
     0
 10
0.0937066
 20
105.344
 30
0.0
 11
305.369
 21
105.344
 31
0.0
  0
LINE
  8
0
 62
     0
 10
305.369
 20
105.344
 30
0.0
 11
305.369
 21
0.0937066
 31
0.0
  0
LINE
  8
0
 62
     0
 10
305.369
 20
0.0937066
 30
0.0
 11
0.0937066
 21
0.0937066
 31
0.0
  0
LINE
  8
0
 62
     0
 10
0.0937066
 20
0.0937066
 30
0.0
 11
0.0937066
 21
105.344
 31
0.0
  0
LINE
  8
0
 62
     0
 10
6.81852
 20
97.2192
 30
0.0
 11
22.4193
 21
97.2192
 31
0.0
  0
LINE
  8
0
 62
     0
 10
22.4193
 20
97.2192
 30
0.0
 11
22.4193
 21
84.4187
 31
0.0
  0
LINE
  8
0
 62
     0
 10
22.4193
 20
84.4187
 30
0.0
 11
6.81852
 21
84.4187
 31
0.0
  0
LINE
  8
0
 62
     0
 10
6.81852
 20
84.4187
 30
0.0
 11
6.81852
 21
97.2192
 31
0.0
  0
LINE
  8
0
 62
     0
 10
6.81852
 20
78.1692
 30
0.0
 11
22.4193
 21
78.1692
 31
0.0
  0
LINE
  8
0
 62
     0
 10
22.4193
 20
78.1692
 30
0.0
 11
22.4193
 21
65.3687
 31
0.0
  0
LINE
  8
0
 62
     0
 10
22.4193
 20
65.3687
 30
0.0
 11
6.81852
 21
65.3687
 31
0.0
  0
LINE
  8
0
 62
     0
 10
6.81852
 20
65.3687
 30
0.0
 11
6.81852
 21
78.1692
 31
0.0
  0
LINE
  8
0
 62
     0
 10
6.81852
 20
21.0192
 30
0.0
 11
22.4193
 21
21.0192
 31
0.0
  0
LINE
  8
0
 62
     0
 10
22.4193
 20
21.0192
 30
0.0
 11
22.4193
 21
8.21863
 31
0.0
  0
LINE
  8
0
 62
     0
 10
22.4193
 20
8.21863
 30
0.0
 11
6.81852
 21
8.21863
 31
0.0
  0
LINE
  8
0
 62
     0
 10
6.81852
 20
8.21863
 30
0.0
 11
6.81852
 21
21.0192
 31
0.0
  0
LINE
  8
0
 62
     0
 10
9.19977
 20
59.1192
 30
0.0
 11
24.7992
 21
59.1192
 31
0.0
  0
LINE
  8
0
 62
     0
 10
24.7992
 20
59.1192
 30
0.0
 11
24.7992
 21
46.3187
 31
0.0
  0
LINE
  8
0
 62
     0
 10
24.7992
 20
46.3187
 30
0.0
 11
9.19977
 21
46.3187
 31
0.0
  0
LINE
  8
0
 62
     0
 10
9.19977
 20
46.3187
 30
0.0
 11
9.19977
 21
59.1192
 31
0.0
  0
LINE
  8
0
 62
     0
 10
13.9623
 20
40.0692
 30
0.0
 11
29.5631
 21
40.0692
 31
0.0
  0
LINE
  8
0
 62
     0
 10
29.5631
 20
40.0692
 30
0.0
 11
29.5631
 21
27.2686
 31
0.0
  0
LINE
  8
0
 62
     0
 10
29.5631
 20
27.2686
 30
0.0
 11
13.9623
 21
27.2686
 31
0.0
  0
LINE
  8
0
 62
     0
 10
13.9623
 20
27.2686
 30
0.0
 11
13.9623
 21
40.0692
 31
0.0
  0
LINE
  8
0
 62
     0
 10
25.8685
 20
97.2192
 30
0.0
 11
41.4694
 21
97.2192
 31
0.0
  0
LINE
  8
0
 62
     0
 10
41.4694
 20
97.2192
 30
0.0
 11
41.4694
 21
84.4187
 31
0.0
  0
LINE
  8
0
 62
     0
 10
41.4694
 20
84.4187
 30
0.0
 11
25.8685
 21
84.4187
 31
0.0
  0
LINE
  8
0
 62
     0
 10
25.8685
 20
84.4187
 30
0.0
 11
25.8685
 21
97.2192
 31
0.0
  0
LINE
  8
0
 62
     0
 10
25.8685
 20
78.1692
 30
0.0
 11
41.4694
 21
78.1692
 31
0.0
  0
LINE
  8
0
 62
     0
 10
41.4694
 20
78.1692
 30
0.0
 11
41.4694
 21
65.3687
 31
0.0
  0
LINE
  8
0
 62
     0
 10
41.4694
 20
65.3687
 30
0.0
 11
25.8685
 21
65.3687
 31
0.0
  0
LINE
  8
0
 62
     0
 10
25.8685
 20
65.3687
 30
0.0
 11
25.8685
 21
78.1692
 31
0.0
  0
LINE
  8
0
 62
     0
 10
25.8685
 20
21.0192
 30
0.0
 11
41.4694
 21
21.0192
 31
0.0
  0
LINE
  8
0
 62
     0
 10
41.4694
 20
21.0192
 30
0.0
 11
41.4694
 21
8.21863
 31
0.0
  0
LINE
  8
0
 62
     0
 10
41.4694
 20
8.21863
 30
0.0
 11
25.8685
 21
8.21863
 31
0.0
  0
LINE
  8
0
 62
     0
 10
25.8685
 20
8.21863
 30
0.0
 11
25.8685
 21
21.0192
 31
0.0
  0
LINE
  8
0
 62
     0
 10
30.6324
 20
59.1192
 30
0.0
 11
46.2305
 21
59.1192
 31
0.0
  0
LINE
  8
0
 62
     0
 10
46.2305
 20
59.1192
 30
0.0
 11
46.2305
 21
46.3187
 31
0.0
  0
LINE
  8
0
 62
     0
 10
46.2305
 20
46.3187
 30
0.0
 11
30.6324
 21
46.3187
 31
0.0
  0
LINE
  8
0
 62
     0
 10
30.6324
 20
46.3187
 30
0.0
 11
30.6324
 21
59.1192
 31
0.0
  0
LINE
  8
0
 62
     0
 10
40.156
 20
40.0692
 30
0.0
 11
55.7555
 21
40.0692
 31
0.0
  0
LINE
  8
0
 62
     0
 10
55.7555
 20
40.0692
 30
0.0
 11
55.7555
 21
27.2686
 31
0.0
  0
LINE
  8
0
 62
     0
 10
55.7555
 20
27.2686
 30
0.0
 11
40.156
 21
27.2686
 31
0.0
  0
LINE
  8
0
 62
     0
 10
40.156
 20
27.2686
 30
0.0
 11
40.156
 21
40.0692
 31
0.0
  0
LINE
  8
0
 62
     0
 10
44.9185
 20
97.2192
 30
0.0
 11
60.5194
 21
97.2192
 31
0.0
  0
LINE
  8
0
 62
     0
 10
60.5194
 20
97.2192
 30
0.0
 11
60.5194
 21
84.4187
 31
0.0
  0
LINE
  8
0
 62
     0
 10
60.5194
 20
84.4187
 30
0.0
 11
44.9185
 21
84.4187
 31
0.0
  0
LINE
  8
0
 62
     0
 10
44.9185
 20
84.4187
 30
0.0
 11
44.9185
 21
97.2192
 31
0.0
  0
LINE
  8
0
 62
     0
 10
44.9185
 20
78.1692
 30
0.0
 11
60.5194
 21
78.1692
 31
0.0
  0
LINE
  8
0
 62
     0
 10
60.5194
 20
78.1692
 30
0.0
 11
60.5194
 21
65.3687
 31
0.0
  0
LINE
  8
0
 62
     0
 10
60.5194
 20
65.3687
 30
0.0
 11
44.9185
 21
65.3687
 31
0.0
  0
LINE
  8
0
 62
     0
 10
44.9185
 20
65.3687
 30
0.0
 11
44.9185
 21
78.1692
 31
0.0
  0
LINE
  8
0
 62
     0
 10
44.9185
 20
21.0192
 30
0.0
 11
60.5194
 21
21.0192
 31
0.0
  0
LINE
  8
0
 62
     0
 10
60.5194
 20
21.0192
 30
0.0
 11
60.5194
 21
8.21863
 31
0.0
  0
LINE
  8
0
 62
     0
 10
60.5194
 20
8.21863
 30
0.0
 11
44.9185
 21
8.21863
 31
0.0
  0
LINE
  8
0
 62
     0
 10
44.9185
 20
8.21863
 30
0.0
 11
44.9185
 21
21.0192
 31
0.0
  0
LINE
  8
0
 62
     0
 10
49.6824
 20
59.1192
 30
0.0
 11
65.2819
 21
59.1192
 31
0.0
  0
LINE
  8
0
 62
     0
 10
65.2819
 20
59.1192
 30
0.0
 11
65.2819
 21
46.3187
 31
0.0
  0
LINE
  8
0
 62
     0
 10
65.2819
 20
46.3187
 30
0.0
 11
49.6824
 21
46.3187
 31
0.0
  0
LINE
  8
0
 62
     0
 10
49.6824
 20
46.3187
 30
0.0
 11
49.6824
 21
59.1192
 31
0.0
  0
LINE
  8
0
 62
     0
 10
59.206
 20
40.0692
 30
0.0
 11
74.8055
 21
40.0692
 31
0.0
  0
LINE
  8
0
 62
     0
 10
74.8055
 20
40.0692
 30
0.0
 11
74.8055
 21
27.2686
 31
0.0
  0
LINE
  8
0
 62
     0
 10
74.8055
 20
27.2686
 30
0.0
 11
59.206
 21
27.2686
 31
0.0
  0
LINE
  8
0
 62
     0
 10
59.206
 20
27.2686
 30
0.0
 11
59.206
 21
40.0692
 31
0.0
  0
LINE
  8
0
 62
     0
 10
63.9685
 20
97.2192
 30
0.0
 11
79.5694
 21
97.2192
 31
0.0
  0
LINE
  8
0
 62
     0
 10
79.5694
 20
97.2192
 30
0.0
 11
79.5694
 21
84.4187
 31
0.0
  0
LINE
  8
0
 62
     0
 10
79.5694
 20
84.4187
 30
0.0
 11
63.9685
 21
84.4187
 31
0.0
  0
LINE
  8
0
 62
     0
 10
63.9685
 20
84.4187
 30
0.0
 11
63.9685
 21
97.2192
 31
0.0
  0
LINE
  8
0
 62
     0
 10
63.9685
 20
78.1692
 30
0.0
 11
79.5694
 21
78.1692
 31
0.0
  0
LINE
  8
0
 62
     0
 10
79.5694
 20
78.1692
 30
0.0
 11
79.5694
 21
65.3687
 31
0.0
  0
LINE
  8
0
 62
     0
 10
79.5694
 20
65.3687
 30
0.0
 11
63.9685
 21
65.3687
 31
0.0
  0
LINE
  8
0
 62
     0
 10
63.9685
 20
65.3687
 30
0.0
 11
63.9685
 21
78.1692
 31
0.0
  0
LINE
  8
0
 62
     0
 10
68.7324
 20
59.1192
 30
0.0
 11
84.3305
 21
59.1192
 31
0.0
  0
LINE
  8
0
 62
     0
 10
84.3305
 20
59.1192
 30
0.0
 11
84.3305
 21
46.3187
 31
0.0
  0
LINE
  8
0
 62
     0
 10
84.3305
 20
46.3187
 30
0.0
 11
68.7324
 21
46.3187
 31
0.0
  0
LINE
  8
0
 62
     0
 10
68.7324
 20
46.3187
 30
0.0
 11
68.7324
 21
59.1192
 31
0.0
  0
LINE
  8
0
 62
     0
 10
78.256
 20
40.0692
 30
0.0
 11
93.8555
 21
40.0692
 31
0.0
  0
LINE
  8
0
 62
     0
 10
93.8555
 20
40.0692
 30
0.0
 11
93.8555
 21
27.2686
 31
0.0
  0
LINE
  8
0
 62
     0
 10
93.8555
 20
27.2686
 30
0.0
 11
78.256
 21
27.2686
 31
0.0
  0
LINE
  8
0
 62
     0
 10
78.256
 20
27.2686
 30
0.0
 11
78.256
 21
40.0692
 31
0.0
  0
LINE
  8
0
 62
     0
 10
83.0185
 20
97.2192
 30
0.0
 11
98.6194
 21
97.2192
 31
0.0
  0
LINE
  8
0
 62
     0
 10
98.6194
 20
97.2192
 30
0.0
 11
98.6194
 21
84.4187
 31
0.0
  0
LINE
  8
0
 62
     0
 10
98.6194
 20
84.4187
 30
0.0
 11
83.0185
 21
84.4187
 31
0.0
  0
LINE
  8
0
 62
     0
 10
83.0185
 20
84.4187
 30
0.0
 11
83.0185
 21
97.2192
 31
0.0
  0
LINE
  8
0
 62
     0
 10
83.0185
 20
78.1692
 30
0.0
 11
98.6194
 21
78.1692
 31
0.0
  0
LINE
  8
0
 62
     0
 10
98.6194
 20
78.1692
 30
0.0
 11
98.6194
 21
65.3687
 31
0.0
  0
LINE
  8
0
 62
     0
 10
98.6194
 20
65.3687
 30
0.0
 11
83.0185
 21
65.3687
 31
0.0
  0
LINE
  8
0
 62
     0
 10
83.0185
 20
65.3687
 30
0.0
 11
83.0185
 21
78.1692
 31
0.0
  0
LINE
  8
0
 62
     0
 10
98.9005
 20
14.1194
 30
0.0
 11
98.9005
 21
7.84931
 31
0.0
  0
LINE
  8
0
 62
     0
 10
98.9005
 20
7.84931
 30
0.0
 11
97.2742
 21
7.84931
 31
0.0
  0
LINE
  8
0
 62
     0
 10
97.2742
 20
7.84931
 30
0.0
 11
97.2742
 21
6.86954
 31
0.0
  0
LINE
  8
0
 62
     0
 10
97.2742
 20
6.86954
 30
0.0
 11
93.9754
 21
6.86954
 31
0.0
  0
LINE
  8
0
 62
     0
 10
93.9754
 20
6.86954
 30
0.0
 11
93.9754
 21
7.84931
 31
0.0
  0
LINE
  8
0
 62
     0
 10
93.9754
 20
7.84931
 30
0.0
 11
92.25
 21
7.84931
 31
0.0
  0
LINE
  8
0
 62
     0
 10
92.25
 20
7.84931
 30
0.0
 11
92.25
 21
8.64856
 31
0.0
  0
LINE
  8
0
 62
     0
 10
92.25
 20
8.64856
 30
0.0
 11
91.4742
 21
8.64856
 31
0.0
  0
LINE
  8
0
 62
     0
 10
91.4742
 20
8.64856
 30
0.0
 11
91.4742
 21
8.21863
 31
0.0
  0
LINE
  8
0
 62
     0
 10
91.4742
 20
8.21863
 30
0.0
 11
75.8747
 21
8.21863
 31
0.0
  0
LINE
  8
0
 62
     0
 10
75.8747
 20
8.21863
 30
0.0
 11
75.8747
 21
8.64856
 31
0.0
  0
LINE
  8
0
 62
     0
 10
75.8747
 20
8.64856
 30
0.0
 11
75.1004
 21
8.64856
 31
0.0
  0
LINE
  8
0
 62
     0
 10
75.1004
 20
8.64856
 30
0.0
 11
75.1004
 21
7.84931
 31
0.0
  0
LINE
  8
0
 62
     0
 10
75.1004
 20
7.84931
 30
0.0
 11
73.375
 21
7.84931
 31
0.0
  0
LINE
  8
0
 62
     0
 10
73.375
 20
7.84931
 30
0.0
 11
73.375
 21
6.86954
 31
0.0
  0
LINE
  8
0
 62
     0
 10
73.375
 20
6.86954
 30
0.0
 11
70.0747
 21
6.86954
 31
0.0
  0
LINE
  8
0
 62
     0
 10
70.0747
 20
6.86954
 30
0.0
 11
70.0747
 21
7.84931
 31
0.0
  0
LINE
  8
0
 62
     0
 10
70.0747
 20
7.84931
 30
0.0
 11
68.4498
 21
7.84931
 31
0.0
  0
LINE
  8
0
 62
     0
 10
68.4498
 20
7.84931
 30
0.0
 11
68.4498
 21
14.1194
 31
0.0
  0
LINE
  8
0
 62
     0
 10
68.4498
 20
14.1194
 30
0.0
 11
67.5749
 21
14.1194
 31
0.0
  0
LINE
  8
0
 62
     0
 10
67.5749
 20
14.1194
 30
0.0
 11
67.5749
 21
16.9195
 31
0.0
  0
LINE
  8
0
 62
     0
 10
67.5749
 20
16.9195
 30
0.0
 11
68.4498
 21
16.9195
 31
0.0
  0
LINE
  8
0
 62
     0
 10
68.4498
 20
16.9195
 30
0.0
 11
68.4498
 21
20.1497
 31
0.0
  0
LINE
  8
0
 62
     0
 10
68.4498
 20
20.1497
 30
0.0
 11
70.0747
 21
20.1497
 31
0.0
  0
LINE
  8
0
 62
     0
 10
70.0747
 20
20.1497
 30
0.0
 11
70.0747
 21
21.0688
 31
0.0
  0
LINE
  8
0
 62
     0
 10
70.0747
 20
21.0688
 30
0.0
 11
73.375
 21
21.0688
 31
0.0
  0
LINE
  8
0
 62
     0
 10
73.375
 20
21.0688
 30
0.0
 11
73.375
 21
20.1497
 31
0.0
  0
LINE
  8
0
 62
     0
 10
73.375
 20
20.1497
 30
0.0
 11
75.1004
 21
20.1497
 31
0.0
  0
LINE
  8
0
 62
     0
 10
75.1004
 20
20.1497
 30
0.0
 11
75.1004
 21
19.349
 31
0.0
  0
LINE
  8
0
 62
     0
 10
75.1004
 20
19.349
 30
0.0
 11
75.8747
 21
19.349
 31
0.0
  0
LINE
  8
0
 62
     0
 10
75.8747
 20
19.349
 30
0.0
 11
75.8747
 21
21.0192
 31
0.0
  0
LINE
  8
0
 62
     0
 10
75.8747
 20
21.0192
 30
0.0
 11
91.4742
 21
21.0192
 31
0.0
  0
LINE
  8
0
 62
     0
 10
91.4742
 20
21.0192
 30
0.0
 11
91.4742
 21
19.349
 31
0.0
  0
LINE
  8
0
 62
     0
 10
91.4742
 20
19.349
 30
0.0
 11
92.25
 21
19.349
 31
0.0
  0
LINE
  8
0
 62
     0
 10
92.25
 20
19.349
 30
0.0
 11
92.25
 21
20.1497
 31
0.0
  0
LINE
  8
0
 62
     0
 10
92.25
 20
20.1497
 30
0.0
 11
93.9754
 21
20.1497
 31
0.0
  0
LINE
  8
0
 62
     0
 10
93.9754
 20
20.1497
 30
0.0
 11
93.9754
 21
21.0688
 31
0.0
  0
LINE
  8
0
 62
     0
 10
93.9754
 20
21.0688
 30
0.0
 11
97.2742
 21
21.0688
 31
0.0
  0
LINE
  8
0
 62
     0
 10
97.2742
 20
21.0688
 30
0.0
 11
97.2742
 21
20.1497
 31
0.0
  0
LINE
  8
0
 62
     0
 10
97.2742
 20
20.1497
 30
0.0
 11
98.9005
 21
20.1497
 31
0.0
  0
LINE
  8
0
 62
     0
 10
98.9005
 20
20.1497
 30
0.0
 11
98.9005
 21
16.9195
 31
0.0
  0
LINE
  8
0
 62
     0
 10
98.9005
 20
16.9195
 30
0.0
 11
99.774
 21
16.9195
 31
0.0
  0
LINE
  8
0
 62
     0
 10
99.774
 20
16.9195
 30
0.0
 11
99.774
 21
14.1194
 31
0.0
  0
LINE
  8
0
 62
     0
 10
99.774
 20
14.1194
 30
0.0
 11
98.9005
 21
14.1194
 31
0.0
  0
LINE
  8
0
 62
     0
 10
87.7824
 20
59.1192
 30
0.0
 11
103.38
 21
59.1192
 31
0.0
  0
LINE
  8
0
 62
     0
 10
103.38
 20
59.1192
 30
0.0
 11
103.38
 21
46.3187
 31
0.0
  0
LINE
  8
0
 62
     0
 10
103.38
 20
46.3187
 30
0.0
 11
87.7824
 21
46.3187
 31
0.0
  0
LINE
  8
0
 62
     0
 10
87.7824
 20
46.3187
 30
0.0
 11
87.7824
 21
59.1192
 31
0.0
  0
LINE
  8
0
 62
     0
 10
97.306
 20
40.0692
 30
0.0
 11
112.905
 21
40.0692
 31
0.0
  0
LINE
  8
0
 62
     0
 10
112.905
 20
40.0692
 30
0.0
 11
112.905
 21
27.2686
 31
0.0
  0
LINE
  8
0
 62
     0
 10
112.905
 20
27.2686
 30
0.0
 11
97.306
 21
27.2686
 31
0.0
  0
LINE
  8
0
 62
     0
 10
97.306
 20
27.2686
 30
0.0
 11
97.306
 21
40.0692
 31
0.0
  0
LINE
  8
0
 62
     0
 10
102.068
 20
97.2192
 30
0.0
 11
117.669
 21
97.2192
 31
0.0
  0
LINE
  8
0
 62
     0
 10
117.669
 20
97.2192
 30
0.0
 11
117.669
 21
84.4187
 31
0.0
  0
LINE
  8
0
 62
     0
 10
117.669
 20
84.4187
 30
0.0
 11
102.068
 21
84.4187
 31
0.0
  0
LINE
  8
0
 62
     0
 10
102.068
 20
84.4187
 30
0.0
 11
102.068
 21
97.2192
 31
0.0
  0
LINE
  8
0
 62
     0
 10
102.068
 20
78.1692
 30
0.0
 11
117.669
 21
78.1692
 31
0.0
  0
LINE
  8
0
 62
     0
 10
117.669
 20
78.1692
 30
0.0
 11
117.669
 21
65.3687
 31
0.0
  0
LINE
  8
0
 62
     0
 10
117.669
 20
65.3687
 30
0.0
 11
102.068
 21
65.3687
 31
0.0
  0
LINE
  8
0
 62
     0
 10
102.068
 20
65.3687
 30
0.0
 11
102.068
 21
78.1692
 31
0.0
  0
LINE
  8
0
 62
     0
 10
106.831
 20
59.1192
 30
0.0
 11
122.43
 21
59.1192
 31
0.0
  0
LINE
  8
0
 62
     0
 10
122.43
 20
59.1192
 30
0.0
 11
122.43
 21
46.3187
 31
0.0
  0
LINE
  8
0
 62
     0
 10
122.43
 20
46.3187
 30
0.0
 11
106.831
 21
46.3187
 31
0.0
  0
LINE
  8
0
 62
     0
 10
106.831
 20
46.3187
 30
0.0
 11
106.831
 21
59.1192
 31
0.0
  0
LINE
  8
0
 62
     0
 10
113.975
 20
21.0192
 30
0.0
 11
129.574
 21
21.0192
 31
0.0
  0
LINE
  8
0
 62
     0
 10
129.574
 20
21.0192
 30
0.0
 11
129.574
 21
8.21863
 31
0.0
  0
LINE
  8
0
 62
     0
 10
129.574
 20
8.21863
 30
0.0
 11
113.975
 21
8.21863
 31
0.0
  0
LINE
  8
0
 62
     0
 10
113.975
 20
8.21863
 30
0.0
 11
113.975
 21
21.0192
 31
0.0
  0
LINE
  8
0
 62
     0
 10
116.357
 20
40.0692
 30
0.0
 11
131.957
 21
40.0692
 31
0.0
  0
LINE
  8
0
 62
     0
 10
131.957
 20
40.0692
 30
0.0
 11
131.957
 21
27.2686
 31
0.0
  0
LINE
  8
0
 62
     0
 10
131.957
 20
27.2686
 30
0.0
 11
116.357
 21
27.2686
 31
0.0
  0
LINE
  8
0
 62
     0
 10
116.357
 20
27.2686
 30
0.0
 11
116.357
 21
40.0692
 31
0.0
  0
LINE
  8
0
 62
     0
 10
121.118
 20
97.2192
 30
0.0
 11
136.719
 21
97.2192
 31
0.0
  0
LINE
  8
0
 62
     0
 10
136.719
 20
97.2192
 30
0.0
 11
136.719
 21
84.4187
 31
0.0
  0
LINE
  8
0
 62
     0
 10
136.719
 20
84.4187
 30
0.0
 11
121.118
 21
84.4187
 31
0.0
  0
LINE
  8
0
 62
     0
 10
121.118
 20
84.4187
 30
0.0
 11
121.118
 21
97.2192
 31
0.0
  0
LINE
  8
0
 62
     0
 10
121.118
 20
78.1692
 30
0.0
 11
136.719
 21
78.1692
 31
0.0
  0
LINE
  8
0
 62
     0
 10
136.719
 20
78.1692
 30
0.0
 11
136.719
 21
65.3687
 31
0.0
  0
LINE
  8
0
 62
     0
 10
136.719
 20
65.3687
 30
0.0
 11
121.118
 21
65.3687
 31
0.0
  0
LINE
  8
0
 62
     0
 10
121.118
 20
65.3687
 30
0.0
 11
121.118
 21
78.1692
 31
0.0
  0
LINE
  8
0
 62
     0
 10
125.881
 20
59.1192
 30
0.0
 11
141.482
 21
59.1192
 31
0.0
  0
LINE
  8
0
 62
     0
 10
141.482
 20
59.1192
 30
0.0
 11
141.482
 21
46.3187
 31
0.0
  0
LINE
  8
0
 62
     0
 10
141.482
 20
46.3187
 30
0.0
 11
125.881
 21
46.3187
 31
0.0
  0
LINE
  8
0
 62
     0
 10
125.881
 20
46.3187
 30
0.0
 11
125.881
 21
59.1192
 31
0.0
  0
LINE
  8
0
 62
     0
 10
135.406
 20
40.0692
 30
0.0
 11
151.007
 21
40.0692
 31
0.0
  0
LINE
  8
0
 62
     0
 10
151.007
 20
40.0692
 30
0.0
 11
151.007
 21
27.2686
 31
0.0
  0
LINE
  8
0
 62
     0
 10
151.007
 20
27.2686
 30
0.0
 11
135.406
 21
27.2686
 31
0.0
  0
LINE
  8
0
 62
     0
 10
135.406
 20
27.2686
 30
0.0
 11
135.406
 21
40.0692
 31
0.0
  0
LINE
  8
0
 62
     0
 10
140.168
 20
97.2192
 30
0.0
 11
155.769
 21
97.2192
 31
0.0
  0
LINE
  8
0
 62
     0
 10
155.769
 20
97.2192
 30
0.0
 11
155.769
 21
84.4187
 31
0.0
  0
LINE
  8
0
 62
     0
 10
155.769
 20
84.4187
 30
0.0
 11
140.168
 21
84.4187
 31
0.0
  0
LINE
  8
0
 62
     0
 10
140.168
 20
84.4187
 30
0.0
 11
140.168
 21
97.2192
 31
0.0
  0
LINE
  8
0
 62
     0
 10
140.168
 20
78.1692
 30
0.0
 11
155.769
 21
78.1692
 31
0.0
  0
LINE
  8
0
 62
     0
 10
155.769
 20
78.1692
 30
0.0
 11
155.769
 21
65.3687
 31
0.0
  0
LINE
  8
0
 62
     0
 10
155.769
 20
65.3687
 30
0.0
 11
140.168
 21
65.3687
 31
0.0
  0
LINE
  8
0
 62
     0
 10
140.168
 20
65.3687
 30
0.0
 11
140.168
 21
78.1692
 31
0.0
  0
LINE
  8
0
 62
     0
 10
144.932
 20
59.1192
 30
0.0
 11
160.532
 21
59.1192
 31
0.0
  0
LINE
  8
0
 62
     0
 10
160.532
 20
59.1192
 30
0.0
 11
160.532
 21
46.3187
 31
0.0
  0
LINE
  8
0
 62
     0
 10
160.532
 20
46.3187
 30
0.0
 11
144.932
 21
46.3187
 31
0.0
  0
LINE
  8
0
 62
     0
 10
144.932
 20
46.3187
 30
0.0
 11
144.932
 21
59.1192
 31
0.0
  0
LINE
  8
0
 62
     0
 10
154.457
 20
40.0692
 30
0.0
 11
170.057
 21
40.0692
 31
0.0
  0
LINE
  8
0
 62
     0
 10
170.057
 20
40.0692
 30
0.0
 11
170.057
 21
27.2686
 31
0.0
  0
LINE
  8
0
 62
     0
 10
170.057
 20
27.2686
 30
0.0
 11
154.457
 21
27.2686
 31
0.0
  0
LINE
  8
0
 62
     0
 10
154.457
 20
27.2686
 30
0.0
 11
154.457
 21
40.0692
 31
0.0
  0
LINE
  8
0
 62
     0
 10
159.218
 20
97.2192
 30
0.0
 11
174.819
 21
97.2192
 31
0.0
  0
LINE
  8
0
 62
     0
 10
174.819
 20
97.2192
 30
0.0
 11
174.819
 21
84.4187
 31
0.0
  0
LINE
  8
0
 62
     0
 10
174.819
 20
84.4187
 30
0.0
 11
159.218
 21
84.4187
 31
0.0
  0
LINE
  8
0
 62
     0
 10
159.218
 20
84.4187
 30
0.0
 11
159.218
 21
97.2192
 31
0.0
  0
LINE
  8
0
 62
     0
 10
159.218
 20
78.1692
 30
0.0
 11
174.819
 21
78.1692
 31
0.0
  0
LINE
  8
0
 62
     0
 10
174.819
 20
78.1692
 30
0.0
 11
174.819
 21
65.3687
 31
0.0
  0
LINE
  8
0
 62
     0
 10
174.819
 20
65.3687
 30
0.0
 11
159.218
 21
65.3687
 31
0.0
  0
LINE
  8
0
 62
     0
 10
159.218
 20
65.3687
 30
0.0
 11
159.218
 21
78.1692
 31
0.0
  0
LINE
  8
0
 62
     0
 10
175.101
 20
14.1194
 30
0.0
 11
175.101
 21
7.84931
 31
0.0
  0
LINE
  8
0
 62
     0
 10
175.101
 20
7.84931
 30
0.0
 11
173.474
 21
7.84931
 31
0.0
  0
LINE
  8
0
 62
     0
 10
173.474
 20
7.84931
 30
0.0
 11
173.474
 21
6.86954
 31
0.0
  0
LINE
  8
0
 62
     0
 10
173.474
 20
6.86954
 30
0.0
 11
170.175
 21
6.86954
 31
0.0
  0
LINE
  8
0
 62
     0
 10
170.175
 20
6.86954
 30
0.0
 11
170.175
 21
7.84931
 31
0.0
  0
LINE
  8
0
 62
     0
 10
170.175
 20
7.84931
 30
0.0
 11
168.45
 21
7.84931
 31
0.0
  0
LINE
  8
0
 62
     0
 10
168.45
 20
7.84931
 30
0.0
 11
168.45
 21
8.64856
 31
0.0
  0
LINE
  8
0
 62
     0
 10
168.45
 20
8.64856
 30
0.0
 11
167.674
 21
8.64856
 31
0.0
  0
LINE
  8
0
 62
     0
 10
167.674
 20
8.64856
 30
0.0
 11
167.674
 21
8.21863
 31
0.0
  0
LINE
  8
0
 62
     0
 10
167.674
 20
8.21863
 30
0.0
 11
152.075
 21
8.21863
 31
0.0
  0
LINE
  8
0
 62
     0
 10
152.075
 20
8.21863
 30
0.0
 11
152.075
 21
8.64856
 31
0.0
  0
LINE
  8
0
 62
     0
 10
152.075
 20
8.64856
 30
0.0
 11
151.3
 21
8.64856
 31
0.0
  0
LINE
  8
0
 62
     0
 10
151.3
 20
8.64856
 30
0.0
 11
151.3
 21
7.84931
 31
0.0
  0
LINE
  8
0
 62
     0
 10
151.3
 20
7.84931
 30
0.0
 11
149.575
 21
7.84931
 31
0.0
  0
LINE
  8
0
 62
     0
 10
149.575
 20
7.84931
 30
0.0
 11
149.575
 21
6.86954
 31
0.0
  0
LINE
  8
0
 62
     0
 10
149.575
 20
6.86954
 30
0.0
 11
146.275
 21
6.86954
 31
0.0
  0
LINE
  8
0
 62
     0
 10
146.275
 20
6.86954
 30
0.0
 11
146.275
 21
7.84931
 31
0.0
  0
LINE
  8
0
 62
     0
 10
146.275
 20
7.84931
 30
0.0
 11
144.65
 21
7.84931
 31
0.0
  0
LINE
  8
0
 62
     0
 10
144.65
 20
7.84931
 30
0.0
 11
144.65
 21
14.1194
 31
0.0
  0
LINE
  8
0
 62
     0
 10
144.65
 20
14.1194
 30
0.0
 11
143.775
 21
14.1194
 31
0.0
  0
LINE
  8
0
 62
     0
 10
143.775
 20
14.1194
 30
0.0
 11
143.775
 21
16.9195
 31
0.0
  0
LINE
  8
0
 62
     0
 10
143.775
 20
16.9195
 30
0.0
 11
144.65
 21
16.9195
 31
0.0
  0
LINE
  8
0
 62
     0
 10
144.65
 20
16.9195
 30
0.0
 11
144.65
 21
20.1497
 31
0.0
  0
LINE
  8
0
 62
     0
 10
144.65
 20
20.1497
 30
0.0
 11
146.275
 21
20.1497
 31
0.0
  0
LINE
  8
0
 62
     0
 10
146.275
 20
20.1497
 30
0.0
 11
146.275
 21
21.0688
 31
0.0
  0
LINE
  8
0
 62
     0
 10
146.275
 20
21.0688
 30
0.0
 11
149.575
 21
21.0688
 31
0.0
  0
LINE
  8
0
 62
     0
 10
149.575
 20
21.0688
 30
0.0
 11
149.575
 21
20.1497
 31
0.0
  0
LINE
  8
0
 62
     0
 10
149.575
 20
20.1497
 30
0.0
 11
151.3
 21
20.1497
 31
0.0
  0
LINE
  8
0
 62
     0
 10
151.3
 20
20.1497
 30
0.0
 11
151.3
 21
19.349
 31
0.0
  0
LINE
  8
0
 62
     0
 10
151.3
 20
19.349
 30
0.0
 11
152.075
 21
19.349
 31
0.0
  0
LINE
  8
0
 62
     0
 10
152.075
 20
19.349
 30
0.0
 11
152.075
 21
21.0192
 31
0.0
  0
LINE
  8
0
 62
     0
 10
152.075
 20
21.0192
 30
0.0
 11
167.674
 21
21.0192
 31
0.0
  0
LINE
  8
0
 62
     0
 10
167.674
 20
21.0192
 30
0.0
 11
167.674
 21
19.349
 31
0.0
  0
LINE
  8
0
 62
     0
 10
167.674
 20
19.349
 30
0.0
 11
168.45
 21
19.349
 31
0.0
  0
LINE
  8
0
 62
     0
 10
168.45
 20
19.349
 30
0.0
 11
168.45
 21
20.1497
 31
0.0
  0
LINE
  8
0
 62
     0
 10
168.45
 20
20.1497
 30
0.0
 11
170.175
 21
20.1497
 31
0.0
  0
LINE
  8
0
 62
     0
 10
170.175
 20
20.1497
 30
0.0
 11
170.175
 21
21.0688
 31
0.0
  0
LINE
  8
0
 62
     0
 10
170.175
 20
21.0688
 30
0.0
 11
173.474
 21
21.0688
 31
0.0
  0
LINE
  8
0
 62
     0
 10
173.474
 20
21.0688
 30
0.0
 11
173.474
 21
20.1497
 31
0.0
  0
LINE
  8
0
 62
     0
 10
173.474
 20
20.1497
 30
0.0
 11
175.101
 21
20.1497
 31
0.0
  0
LINE
  8
0
 62
     0
 10
175.101
 20
20.1497
 30
0.0
 11
175.101
 21
16.9195
 31
0.0
  0
LINE
  8
0
 62
     0
 10
175.101
 20
16.9195
 30
0.0
 11
175.974
 21
16.9195
 31
0.0
  0
LINE
  8
0
 62
     0
 10
175.974
 20
16.9195
 30
0.0
 11
175.974
 21
14.1194
 31
0.0
  0
LINE
  8
0
 62
     0
 10
175.974
 20
14.1194
 30
0.0
 11
175.101
 21
14.1194
 31
0.0
  0
LINE
  8
0
 62
     0
 10
163.982
 20
59.1192
 30
0.0
 11
179.582
 21
59.1192
 31
0.0
  0
LINE
  8
0
 62
     0
 10
179.582
 20
59.1192
 30
0.0
 11
179.582
 21
46.3187
 31
0.0
  0
LINE
  8
0
 62
     0
 10
179.582
 20
46.3187
 30
0.0
 11
163.982
 21
46.3187
 31
0.0
  0
LINE
  8
0
 62
     0
 10
163.982
 20
46.3187
 30
0.0
 11
163.982
 21
59.1192
 31
0.0
  0
LINE
  8
0
 62
     0
 10
173.507
 20
40.0692
 30
0.0
 11
189.107
 21
40.0692
 31
0.0
  0
LINE
  8
0
 62
     0
 10
189.107
 20
40.0692
 30
0.0
 11
189.107
 21
27.2686
 31
0.0
  0
LINE
  8
0
 62
     0
 10
189.107
 20
27.2686
 30
0.0
 11
173.507
 21
27.2686
 31
0.0
  0
LINE
  8
0
 62
     0
 10
173.507
 20
27.2686
 30
0.0
 11
173.507
 21
40.0692
 31
0.0
  0
LINE
  8
0
 62
     0
 10
178.268
 20
97.2192
 30
0.0
 11
193.869
 21
97.2192
 31
0.0
  0
LINE
  8
0
 62
     0
 10
193.869
 20
97.2192
 30
0.0
 11
193.869
 21
84.4187
 31
0.0
  0
LINE
  8
0
 62
     0
 10
193.869
 20
84.4187
 30
0.0
 11
178.268
 21
84.4187
 31
0.0
  0
LINE
  8
0
 62
     0
 10
178.268
 20
84.4187
 30
0.0
 11
178.268
 21
97.2192
 31
0.0
  0
LINE
  8
0
 62
     0
 10
178.268
 20
78.1692
 30
0.0
 11
193.869
 21
78.1692
 31
0.0
  0
LINE
  8
0
 62
     0
 10
193.869
 20
78.1692
 30
0.0
 11
193.869
 21
65.3687
 31
0.0
  0
LINE
  8
0
 62
     0
 10
193.869
 20
65.3687
 30
0.0
 11
178.268
 21
65.3687
 31
0.0
  0
LINE
  8
0
 62
     0
 10
178.268
 20
65.3687
 30
0.0
 11
178.268
 21
78.1692
 31
0.0
  0
LINE
  8
0
 62
     0
 10
183.032
 20
21.0192
 30
0.0
 11
198.632
 21
21.0192
 31
0.0
  0
LINE
  8
0
 62
     0
 10
198.632
 20
21.0192
 30
0.0
 11
198.632
 21
8.21863
 31
0.0
  0
LINE
  8
0
 62
     0
 10
198.632
 20
8.21863
 30
0.0
 11
183.032
 21
8.21863
 31
0.0
  0
LINE
  8
0
 62
     0
 10
183.032
 20
8.21863
 30
0.0
 11
183.032
 21
21.0192
 31
0.0
  0
LINE
  8
0
 62
     0
 10
183.032
 20
59.1192
 30
0.0
 11
198.632
 21
59.1192
 31
0.0
  0
LINE
  8
0
 62
     0
 10
198.632
 20
59.1192
 30
0.0
 11
198.632
 21
46.3187
 31
0.0
  0
LINE
  8
0
 62
     0
 10
198.632
 20
46.3187
 30
0.0
 11
183.032
 21
46.3187
 31
0.0
  0
LINE
  8
0
 62
     0
 10
183.032
 20
46.3187
 30
0.0
 11
183.032
 21
59.1192
 31
0.0
  0
LINE
  8
0
 62
     0
 10
192.557
 20
40.0692
 30
0.0
 11
208.157
 21
40.0692
 31
0.0
  0
LINE
  8
0
 62
     0
 10
208.157
 20
40.0692
 30
0.0
 11
208.157
 21
27.2686
 31
0.0
  0
LINE
  8
0
 62
     0
 10
208.157
 20
27.2686
 30
0.0
 11
192.557
 21
27.2686
 31
0.0
  0
LINE
  8
0
 62
     0
 10
192.557
 20
27.2686
 30
0.0
 11
192.557
 21
40.0692
 31
0.0
  0
LINE
  8
0
 62
     0
 10
197.318
 20
97.2192
 30
0.0
 11
212.919
 21
97.2192
 31
0.0
  0
LINE
  8
0
 62
     0
 10
212.919
 20
97.2192
 30
0.0
 11
212.919
 21
84.4187
 31
0.0
  0
LINE
  8
0
 62
     0
 10
212.919
 20
84.4187
 30
0.0
 11
197.318
 21
84.4187
 31
0.0
  0
LINE
  8
0
 62
     0
 10
197.318
 20
84.4187
 30
0.0
 11
197.318
 21
97.2192
 31
0.0
  0
LINE
  8
0
 62
     0
 10
197.318
 20
78.1692
 30
0.0
 11
212.919
 21
78.1692
 31
0.0
  0
LINE
  8
0
 62
     0
 10
212.919
 20
78.1692
 30
0.0
 11
212.919
 21
65.3687
 31
0.0
  0
LINE
  8
0
 62
     0
 10
212.919
 20
65.3687
 30
0.0
 11
197.318
 21
65.3687
 31
0.0
  0
LINE
  8
0
 62
     0
 10
197.318
 20
65.3687
 30
0.0
 11
197.318
 21
78.1692
 31
0.0
  0
LINE
  8
0
 62
     0
 10
202.082
 20
21.0192
 30
0.0
 11
217.682
 21
21.0192
 31
0.0
  0
LINE
  8
0
 62
     0
 10
217.682
 20
21.0192
 30
0.0
 11
217.682
 21
8.21863
 31
0.0
  0
LINE
  8
0
 62
     0
 10
217.682
 20
8.21863
 30
0.0
 11
202.082
 21
8.21863
 31
0.0
  0
LINE
  8
0
 62
     0
 10
202.082
 20
8.21863
 30
0.0
 11
202.082
 21
21.0192
 31
0.0
  0
LINE
  8
0
 62
     0
 10
202.082
 20
59.1192
 30
0.0
 11
217.682
 21
59.1192
 31
0.0
  0
LINE
  8
0
 62
     0
 10
217.682
 20
59.1192
 30
0.0
 11
217.682
 21
46.3187
 31
0.0
  0
LINE
  8
0
 62
     0
 10
217.682
 20
46.3187
 30
0.0
 11
202.082
 21
46.3187
 31
0.0
  0
LINE
  8
0
 62
     0
 10
202.082
 20
46.3187
 30
0.0
 11
202.082
 21
59.1192
 31
0.0
  0
LINE
  8
0
 62
     0
 10
211.607
 20
40.0692
 30
0.0
 11
227.207
 21
40.0692
 31
0.0
  0
LINE
  8
0
 62
     0
 10
227.207
 20
40.0692
 30
0.0
 11
227.207
 21
27.2686
 31
0.0
  0
LINE
  8
0
 62
     0
 10
227.207
 20
27.2686
 30
0.0
 11
211.607
 21
27.2686
 31
0.0
  0
LINE
  8
0
 62
     0
 10
211.607
 20
27.2686
 30
0.0
 11
211.607
 21
40.0692
 31
0.0
  0
LINE
  8
0
 62
     0
 10
216.368
 20
97.2192
 30
0.0
 11
231.969
 21
97.2192
 31
0.0
  0
LINE
  8
0
 62
     0
 10
231.969
 20
97.2192
 30
0.0
 11
231.969
 21
84.4187
 31
0.0
  0
LINE
  8
0
 62
     0
 10
231.969
 20
84.4187
 30
0.0
 11
216.368
 21
84.4187
 31
0.0
  0
LINE
  8
0
 62
     0
 10
216.368
 20
84.4187
 30
0.0
 11
216.368
 21
97.2192
 31
0.0
  0
LINE
  8
0
 62
     0
 10
216.368
 20
78.1692
 30
0.0
 11
231.969
 21
78.1692
 31
0.0
  0
LINE
  8
0
 62
     0
 10
231.969
 20
78.1692
 30
0.0
 11
231.969
 21
65.3687
 31
0.0
  0
LINE
  8
0
 62
     0
 10
231.969
 20
65.3687
 30
0.0
 11
216.368
 21
65.3687
 31
0.0
  0
LINE
  8
0
 62
     0
 10
216.368
 20
65.3687
 30
0.0
 11
216.368
 21
78.1692
 31
0.0
  0
LINE
  8
0
 62
     0
 10
221.132
 20
59.1192
 30
0.0
 11
236.732
 21
59.1192
 31
0.0
  0
LINE
  8
0
 62
     0
 10
236.732
 20
59.1192
 30
0.0
 11
236.732
 21
46.3187
 31
0.0
  0
LINE
  8
0
 62
     0
 10
236.732
 20
46.3187
 30
0.0
 11
221.132
 21
46.3187
 31
0.0
  0
LINE
  8
0
 62
     0
 10
221.132
 20
46.3187
 30
0.0
 11
221.132
 21
59.1192
 31
0.0
  0
LINE
  8
0
 62
     0
 10
223.512
 20
21.0192
 30
0.0
 11
239.113
 21
21.0192
 31
0.0
  0
LINE
  8
0
 62
     0
 10
239.113
 20
21.0192
 30
0.0
 11
239.113
 21
8.21863
 31
0.0
  0
LINE
  8
0
 62
     0
 10
239.113
 20
8.21863
 30
0.0
 11
223.512
 21
8.21863
 31
0.0
  0
LINE
  8
0
 62
     0
 10
223.512
 20
8.21863
 30
0.0
 11
223.512
 21
21.0192
 31
0.0
  0
LINE
  8
0
 62
     0
 10
235.418
 20
97.2192
 30
0.0
 11
251.019
 21
97.2192
 31
0.0
  0
LINE
  8
0
 62
     0
 10
251.019
 20
97.2192
 30
0.0
 11
251.019
 21
84.4187
 31
0.0
  0
LINE
  8
0
 62
     0
 10
251.019
 20
84.4187
 30
0.0
 11
235.418
 21
84.4187
 31
0.0
  0
LINE
  8
0
 62
     0
 10
235.418
 20
84.4187
 30
0.0
 11
235.418
 21
97.2192
 31
0.0
  0
LINE
  8
0
 62
     0
 10
235.418
 20
78.1692
 30
0.0
 11
251.019
 21
78.1692
 31
0.0
  0
LINE
  8
0
 62
     0
 10
251.019
 20
78.1692
 30
0.0
 11
251.019
 21
65.3687
 31
0.0
  0
LINE
  8
0
 62
     0
 10
251.019
 20
65.3687
 30
0.0
 11
235.418
 21
65.3687
 31
0.0
  0
LINE
  8
0
 62
     0
 10
235.418
 20
65.3687
 30
0.0
 11
235.418
 21
78.1692
 31
0.0
  0
LINE
  8
0
 62
     0
 10
237.8
 20
40.0692
 30
0.0
 11
253.399
 21
40.0692
 31
0.0
  0
LINE
  8
0
 62
     0
 10
253.399
 20
40.0692
 30
0.0
 11
253.399
 21
27.2686
 31
0.0
  0
LINE
  8
0
 62
     0
 10
253.399
 20
27.2686
 30
0.0
 11
237.8
 21
27.2686
 31
0.0
  0
LINE
  8
0
 62
     0
 10
237.8
 20
27.2686
 30
0.0
 11
237.8
 21
40.0692
 31
0.0
  0
LINE
  8
0
 62
     0
 10
244.943
 20
21.0192
 30
0.0
 11
260.544
 21
21.0192
 31
0.0
  0
LINE
  8
0
 62
     0
 10
260.544
 20
21.0192
 30
0.0
 11
260.544
 21
8.21863
 31
0.0
  0
LINE
  8
0
 62
     0
 10
260.544
 20
8.21863
 30
0.0
 11
244.943
 21
8.21863
 31
0.0
  0
LINE
  8
0
 62
     0
 10
244.943
 20
8.21863
 30
0.0
 11
244.943
 21
21.0192
 31
0.0
  0
LINE
  8
0
 62
     0
 10
259.232
 20
97.2192
 30
0.0
 11
274.832
 21
97.2192
 31
0.0
  0
LINE
  8
0
 62
     0
 10
274.832
 20
97.2192
 30
0.0
 11
274.832
 21
84.4187
 31
0.0
  0
LINE
  8
0
 62
     0
 10
274.832
 20
84.4187
 30
0.0
 11
259.232
 21
84.4187
 31
0.0
  0
LINE
  8
0
 62
     0
 10
259.232
 20
84.4187
 30
0.0
 11
259.232
 21
97.2192
 31
0.0
  0
LINE
  8
0
 62
     0
 10
259.232
 20
78.1692
 30
0.0
 11
274.832
 21
78.1692
 31
0.0
  0
LINE
  8
0
 62
     0
 10
274.832
 20
78.1692
 30
0.0
 11
274.832
 21
65.3687
 31
0.0
  0
LINE
  8
0
 62
     0
 10
274.832
 20
65.3687
 30
0.0
 11
259.232
 21
65.3687
 31
0.0
  0
LINE
  8
0
 62
     0
 10
259.232
 20
65.3687
 30
0.0
 11
259.232
 21
78.1692
 31
0.0
  0
LINE
  8
0
 62
     0
 10
275.113
 20
52.2192
 30
0.0
 11
275.113
 21
45.9493
 31
0.0
  0
LINE
  8
0
 62
     0
 10
275.113
 20
45.9493
 30
0.0
 11
273.488
 21
45.9493
 31
0.0
  0
LINE
  8
0
 62
     0
 10
273.488
 20
45.9493
 30
0.0
 11
273.488
 21
44.9696
 31
0.0
  0
LINE
  8
0
 62
     0
 10
273.488
 20
44.9696
 30
0.0
 11
270.188
 21
44.9696
 31
0.0
  0
LINE
  8
0
 62
     0
 10
270.188
 20
44.9696
 30
0.0
 11
270.188
 21
45.9493
 31
0.0
  0
LINE
  8
0
 62
     0
 10
270.188
 20
45.9493
 30
0.0
 11
268.462
 21
45.9493
 31
0.0
  0
LINE
  8
0
 62
     0
 10
268.462
 20
45.9493
 30
0.0
 11
268.462
 21
46.7487
 31
0.0
  0
LINE
  8
0
 62
     0
 10
268.462
 20
46.7487
 30
0.0
 11
267.688
 21
46.7487
 31
0.0
  0
LINE
  8
0
 62
     0
 10
267.688
 20
46.7487
 30
0.0
 11
267.688
 21
46.3187
 31
0.0
  0
LINE
  8
0
 62
     0
 10
267.688
 20
46.3187
 30
0.0
 11
252.087
 21
46.3187
 31
0.0
  0
LINE
  8
0
 62
     0
 10
252.087
 20
46.3187
 30
0.0
 11
252.087
 21
46.7487
 31
0.0
  0
LINE
  8
0
 62
     0
 10
252.087
 20
46.7487
 30
0.0
 11
251.313
 21
46.7487
 31
0.0
  0
LINE
  8
0
 62
     0
 10
251.313
 20
46.7487
 30
0.0
 11
251.313
 21
45.9493
 31
0.0
  0
LINE
  8
0
 62
     0
 10
251.313
 20
45.9493
 30
0.0
 11
249.587
 21
45.9493
 31
0.0
  0
LINE
  8
0
 62
     0
 10
249.587
 20
45.9493
 30
0.0
 11
249.587
 21
44.9696
 31
0.0
  0
LINE
  8
0
 62
     0
 10
249.587
 20
44.9696
 30
0.0
 11
246.287
 21
44.9696
 31
0.0
  0
LINE
  8
0
 62
     0
 10
246.287
 20
44.9696
 30
0.0
 11
246.287
 21
45.9493
 31
0.0
  0
LINE
  8
0
 62
     0
 10
246.287
 20
45.9493
 30
0.0
 11
244.662
 21
45.9493
 31
0.0
  0
LINE
  8
0
 62
     0
 10
244.662
 20
45.9493
 30
0.0
 11
244.662
 21
52.2192
 31
0.0
  0
LINE
  8
0
 62
     0
 10
244.662
 20
52.2192
 30
0.0
 11
243.787
 21
52.2192
 31
0.0
  0
LINE
  8
0
 62
     0
 10
243.787
 20
52.2192
 30
0.0
 11
243.787
 21
55.0196
 31
0.0
  0
LINE
  8
0
 62
     0
 10
243.787
 20
55.0196
 30
0.0
 11
244.662
 21
55.0196
 31
0.0
  0
LINE
  8
0
 62
     0
 10
244.662
 20
55.0196
 30
0.0
 11
244.662
 21
58.2496
 31
0.0
  0
LINE
  8
0
 62
     0
 10
244.662
 20
58.2496
 30
0.0
 11
246.287
 21
58.2496
 31
0.0
  0
LINE
  8
0
 62
     0
 10
246.287
 20
58.2496
 30
0.0
 11
246.287
 21
59.1689
 31
0.0
  0
LINE
  8
0
 62
     0
 10
246.287
 20
59.1689
 30
0.0
 11
249.587
 21
59.1689
 31
0.0
  0
LINE
  8
0
 62
     0
 10
249.587
 20
59.1689
 30
0.0
 11
249.587
 21
58.2496
 31
0.0
  0
LINE
  8
0
 62
     0
 10
249.587
 20
58.2496
 30
0.0
 11
251.313
 21
58.2496
 31
0.0
  0
LINE
  8
0
 62
     0
 10
251.313
 20
58.2496
 30
0.0
 11
251.313
 21
57.4492
 31
0.0
  0
LINE
  8
0
 62
     0
 10
251.313
 20
57.4492
 30
0.0
 11
252.087
 21
57.4492
 31
0.0
  0
LINE
  8
0
 62
     0
 10
252.087
 20
57.4492
 30
0.0
 11
252.087
 21
59.1192
 31
0.0
  0
LINE
  8
0
 62
     0
 10
252.087
 20
59.1192
 30
0.0
 11
267.688
 21
59.1192
 31
0.0
  0
LINE
  8
0
 62
     0
 10
267.688
 20
59.1192
 30
0.0
 11
267.688
 21
57.4492
 31
0.0
  0
LINE
  8
0
 62
     0
 10
267.688
 20
57.4492
 30
0.0
 11
268.462
 21
57.4492
 31
0.0
  0
LINE
  8
0
 62
     0
 10
268.462
 20
57.4492
 30
0.0
 11
268.462
 21
58.2496
 31
0.0
  0
LINE
  8
0
 62
     0
 10
268.462
 20
58.2496
 30
0.0
 11
270.188
 21
58.2496
 31
0.0
  0
LINE
  8
0
 62
     0
 10
270.188
 20
58.2496
 30
0.0
 11
270.188
 21
59.1689
 31
0.0
  0
LINE
  8
0
 62
     0
 10
270.188
 20
59.1689
 30
0.0
 11
273.488
 21
59.1689
 31
0.0
  0
LINE
  8
0
 62
     0
 10
273.488
 20
59.1689
 30
0.0
 11
273.488
 21
58.2496
 31
0.0
  0
LINE
  8
0
 62
     0
 10
273.488
 20
58.2496
 30
0.0
 11
275.113
 21
58.2496
 31
0.0
  0
LINE
  8
0
 62
     0
 10
275.113
 20
58.2496
 30
0.0
 11
275.113
 21
55.0196
 31
0.0
  0
LINE
  8
0
 62
     0
 10
275.113
 20
55.0196
 30
0.0
 11
275.988
 21
55.0196
 31
0.0
  0
LINE
  8
0
 62
     0
 10
275.988
 20
55.0196
 30
0.0
 11
275.988
 21
52.2192
 31
0.0
  0
LINE
  8
0
 62
     0
 10
275.988
 20
52.2192
 30
0.0
 11
275.113
 21
52.2192
 31
0.0
  0
LINE
  8
0
 62
     0
 10
263.993
 20
40.0692
 30
0.0
 11
279.594
 21
40.0692
 31
0.0
  0
LINE
  8
0
 62
     0
 10
279.594
 20
40.0692
 30
0.0
 11
279.594
 21
27.2686
 31
0.0
  0
LINE
  8
0
 62
     0
 10
279.594
 20
27.2686
 30
0.0
 11
263.993
 21
27.2686
 31
0.0
  0
LINE
  8
0
 62
     0
 10
263.993
 20
27.2686
 30
0.0
 11
263.993
 21
40.0692
 31
0.0
  0
LINE
  8
0
 62
     0
 10
263.993
 20
21.0192
 30
0.0
 11
279.594
 21
21.0192
 31
0.0
  0
LINE
  8
0
 62
     0
 10
279.594
 20
21.0192
 30
0.0
 11
279.594
 21
8.21863
 31
0.0
  0
LINE
  8
0
 62
     0
 10
279.594
 20
8.21863
 30
0.0
 11
263.993
 21
8.21863
 31
0.0
  0
LINE
  8
0
 62
     0
 10
263.993
 20
8.21863
 30
0.0
 11
263.993
 21
21.0192
 31
0.0
  0
LINE
  8
0
 62
     0
 10
283.043
 20
97.2192
 30
0.0
 11
298.644
 21
97.2192
 31
0.0
  0
LINE
  8
0
 62
     0
 10
298.644
 20
97.2192
 30
0.0
 11
298.644
 21
84.4187
 31
0.0
  0
LINE
  8
0
 62
     0
 10
298.644
 20
84.4187
 30
0.0
 11
283.043
 21
84.4187
 31
0.0
  0
LINE
  8
0
 62
     0
 10
283.043
 20
84.4187
 30
0.0
 11
283.043
 21
97.2192
 31
0.0
  0
LINE
  8
0
 62
     0
 10
283.043
 20
78.1692
 30
0.0
 11
298.644
 21
78.1692
 31
0.0
  0
LINE
  8
0
 62
     0
 10
298.644
 20
78.1692
 30
0.0
 11
298.644
 21
65.3687
 31
0.0
  0
LINE
  8
0
 62
     0
 10
298.644
 20
65.3687
 30
0.0
 11
283.043
 21
65.3687
 31
0.0
  0
LINE
  8
0
 62
     0
 10
283.043
 20
65.3687
 30
0.0
 11
283.043
 21
78.1692
 31
0.0
  0
LINE
  8
0
 62
     0
 10
283.043
 20
59.1192
 30
0.0
 11
298.644
 21
59.1192
 31
0.0
  0
LINE
  8
0
 62
     0
 10
298.644
 20
59.1192
 30
0.0
 11
298.644
 21
46.3187
 31
0.0
  0
LINE
  8
0
 62
     0
 10
298.644
 20
46.3187
 30
0.0
 11
283.043
 21
46.3187
 31
0.0
  0
LINE
  8
0
 62
     0
 10
283.043
 20
46.3187
 30
0.0
 11
283.043
 21
59.1192
 31
0.0
  0
LINE
  8
0
 62
     0
 10
283.043
 20
40.0692
 30
0.0
 11
298.644
 21
40.0692
 31
0.0
  0
LINE
  8
0
 62
     0
 10
298.644
 20
40.0692
 30
0.0
 11
298.644
 21
27.2686
 31
0.0
  0
LINE
  8
0
 62
     0
 10
298.644
 20
27.2686
 30
0.0
 11
283.043
 21
27.2686
 31
0.0
  0
LINE
  8
0
 62
     0
 10
283.043
 20
27.2686
 30
0.0
 11
283.043
 21
40.0692
 31
0.0
  0
LINE
  8
0
 62
     0
 10
283.043
 20
21.0192
 30
0.0
 11
298.644
 21
21.0192
 31
0.0
  0
LINE
  8
0
 62
     0
 10
298.644
 20
21.0192
 30
0.0
 11
298.644
 21
8.21863
 31
0.0
  0
LINE
  8
0
 62
     0
 10
298.644
 20
8.21863
 30
0.0
 11
283.043
 21
8.21863
 31
0.0
  0
LINE
  8
0
 62
     0
 10
283.043
 20
8.21863
 30
0.0
 11
283.043
 21
21.0192
 31
0.0
  0
ENDSEC
  0
EOF
